# xmcd
#
# Track frame offsets:
#	150
#	16342
#	61295
#	95750
#	145580
#	199775
#
# Disc length: 3136 seconds
# Revision: 0
# Processed by: cddbd v1.5.2PL0 Copyright (c) Steve Scherf et al.
# Submitted via: dBpowerAMP V12.0
#
DISCID=4c0c3e06
DTITLE=David Morales presents The Face feat. Juliet Roberts with James “ D Train” Williams and Sharon Bryant - Needin’ U’ II (I Needed U)
DYEAR=2001
DGENRE=House
TTITLE0=Needin’ U’ II (I Needed U) [Radio Mix]
TTITLE1=Needin’ U’ II (I Needed U) [2001 Anthem Mix]
TTITLE2=Needin’ U’ II (I Needed U) [Dark Face Dub]
TTITLE3=Needin’ U’ II (I Needed U) [Soul On Soul Mix]
TTITLE4=Needin’ U’ II (I Needed U) [Stereo Dub]
TTITLE5=Needin’ U’ [Original Mistake Mix]
EXTD=
EXTT0=
EXTT1=
EXTT2=
EXTT3=
EXTT4=
EXTT5=
PLAYORDER=
